<?xml version="1.0" encoding="UTF-8"?>
<!-- React Logo -->
<svg version="1.1" id="react-logo" xmlns="http://www.w3.org/2000/svg" x="0px" y="0px"
	 viewBox="0 0 841.9 595.3" xml:space="preserve">
  <g fill="#61DAFB">
    <path d="M666.3,296.5c0,78.2-63.4,141.6-141.6,141.6S383.1,374.7,383.1,296.5S446.5,154.9,524.7,154.9S666.3,218.3,666.3,296.5z"/>
    <path d="M520.5,390.2c31.7,50.1,78.9,86.4,134.4,100.1c19.4,4.2,26.6-8.4,11.3-19.4
      C630.7,443.3,594.8,402,544.1,370.7c-50.6-31.7-110.1-41.9-166.7-28.7c-19.4,4.2-26.6,8.4-11.3,19.4
      C405.4,329.2,438.4,376.6,470.2,426.8z"/>
    <circle cx="420.9" cy="296.5" r="45.7"/>
  </g>
</svg> 